<svg version="1.1" xmlns="http://www.w3.org/2000/svg" xmlns:xlink="http://www.w3.org/1999/xlink" width="99.70459" height="79.52227" viewBox="0,0,99.70459,79.52227"><g transform="translate(-190.14771,-140.23887)"><g data-paper-data="{&quot;isPaintingLayer&quot;:true}" fill-rule="nonzero" stroke-linecap="butt" stroke-linejoin="miter" stroke-miterlimit="10" stroke-dasharray="" stroke-dashoffset="0" style="mix-blend-mode: normal"><path d="M191.14771,218.76114v-77.52227h97.70459v77.52227z" fill="#9966ff" stroke="#000000" stroke-width="2"/><path d="M203.36258,179.99999c0,-20.2343 16.40314,-36.63742 36.63742,-36.63742c20.2343,0 36.63742,16.40314 36.63742,36.63742c0,20.2343 -16.40314,36.63743 -36.63742,36.63743c-20.2343,0 -36.63742,-16.40314 -36.63742,-36.63743zM239.82362,208.44235c25.19157,0.1247 27.79169,-23.56736 27.79169,-23.56736h-54.02706c0,0 1.93433,23.44707 26.23537,23.56736zM253.36365,173.54341c2.73661,0 4.95505,-2.21846 4.95505,-4.95505c0,-2.73661 -2.21846,-4.95505 -4.95505,-4.95505c-2.73661,0 -4.95505,2.21846 -4.95505,4.95505c0,2.73661 2.21846,4.95505 4.95505,4.95505zM226.63636,173.54341c2.73661,0 4.95505,-2.21846 4.95505,-4.95505c0,-2.73661 -2.21846,-4.95505 -4.95505,-4.95505c-2.73661,0 -4.95505,2.21846 -4.95505,4.95505c0,2.73661 2.21846,4.95505 4.95505,4.95505z" fill="#a9a9a9" stroke="#525252" stroke-width="2"/><text transform="translate(217.42647,163.96763) scale(0.52205,0.52205)" font-size="40" xml:space="preserve" fill="#000000" fill-rule="nonzero" stroke="none" stroke-width="1" stroke-linecap="butt" stroke-linejoin="miter" stroke-miterlimit="10" stroke-dasharray="" stroke-dashoffset="0" font-family="Sans Serif" font-weight="normal" text-anchor="start" style="mix-blend-mode: normal"><tspan x="0" dy="0">HEY!</tspan></text><text transform="translate(240,177.57485) scale(0.2021,0.2021)" font-size="40" xml:space="preserve" fill="#000000" fill-rule="nonzero" stroke="none" stroke-width="1" stroke-linecap="butt" stroke-linejoin="miter" stroke-miterlimit="10" stroke-dasharray="" stroke-dashoffset="0" font-family="Sans Serif" font-weight="normal" text-anchor="middle" style="mix-blend-mode: normal"><tspan x="0" dy="0">I have a texture</tspan><tspan x="0" dy="48px">but it isn't rendered.</tspan></text></g></g></svg>